<?xml version="1.0" standalone="no"?>
<!DOCTYPE svg PUBLIC "-//W3C//DTD SVG 20010904//EN"
 "http://www.w3.org/TR/2001/REC-SVG-20010904/DTD/svg10.dtd">
<svg version="1.0" xmlns="http://www.w3.org/2000/svg"
 width="260.000000pt" height="260.000000pt" viewBox="0 0 260.000000 260.000000"
 preserveAspectRatio="xMidYMid meet">
<metadata>
Created by potrace 1.11, written by Peter Selinger 2001-2013
</metadata>
<g transform="translate(0.000000,260.000000) scale(0.100000,-0.100000)"
fill="#000000" stroke="none">
<path d="M1217 2584 c-1 -1 -31 -5 -67 -8 -36 -4 -72 -9 -80 -11 -8 -2 -26 -6
-40 -9 -175 -33 -377 -129 -530 -252 -439 -352 -599 -941 -398 -1466 105 -275
322 -522 587 -668 279 -153 621 -194 936 -114 217 56 407 166 576 334 122 121
142 153 143 230 1 136 -119 226 -253 190 -35 -9 -59 -28 -120 -92 -191 -202
-387 -294 -646 -303 -296 -10 -561 119 -740 360 -113 153 -168 318 -169 510
-1 216 34 336 149 510 204 308 587 456 952 366 295 -73 545 -311 634 -603 l17
-58 -21 -1 c-183 -6 -647 -2 -648 6 0 6 -1 87 -2 180 -3 179 -9 207 -57 255
-73 73 -210 73 -279 -1 -51 -53 -55 -74 -58 -249 -1 -91 -2 -172 -2 -180 -1
-13 -28 -15 -181 -14 -168 1 -184 -1 -230 -22 -72 -33 -105 -88 -105 -173 1
-82 33 -139 97 -173 39 -20 59 -22 213 -25 94 -1 179 -2 190 -3 19 0 20 -7 20
-193 1 -212 5 -230 67 -282 57 -48 125 -61 200 -36 47 15 104 79 117 128 5 21
9 113 9 206 -1 92 2 170 5 174 4 3 213 6 464 6 412 0 462 2 498 17 83 36 126
117 119 225 -9 142 -17 192 -46 295 -61 221 -165 399 -332 566 -210 209 -463
333 -751 369 -53 7 -233 14 -238 9z"/>
</g>
</svg>
